<mxfile host="app.diagrams.net" modified="2022-05-19T07:41:08.368Z" agent="5.0 (Windows NT 10.0; Win64; x64) AppleWebKit/537.36 (KHTML, like Gecko) Chrome/101.0.4951.54 Safari/537.36 Edg/101.0.1210.39" etag="htMp-zXhWqfSH_im3du5" version="18.0.6" type="github">
  <diagram id="nkhDkvPF9_EhVScin74x" name="페이지-1">
    <mxGraphModel dx="2004" dy="745" grid="1" gridSize="10" guides="1" tooltips="1" connect="1" arrows="1" fold="1" page="1" pageScale="1" pageWidth="1100" pageHeight="850" math="0" shadow="0">
      <root>
        <mxCell id="0" />
        <mxCell id="1" parent="0" />
        <mxCell id="dQbcpjdNm545p0qG1WxG-1" value="final pjt" style="rounded=0;whiteSpace=wrap;html=1;" vertex="1" parent="1">
          <mxGeometry x="215" y="60" width="140" height="30" as="geometry" />
        </mxCell>
        <mxCell id="dQbcpjdNm545p0qG1WxG-3" value="" style="strokeWidth=2;html=1;shape=mxgraph.flowchart.annotation_2;align=left;labelPosition=right;pointerEvents=1;rotation=90;" vertex="1" parent="1">
          <mxGeometry x="260" y="60" width="50" height="100" as="geometry" />
        </mxCell>
        <mxCell id="dQbcpjdNm545p0qG1WxG-4" value="back" style="rounded=0;whiteSpace=wrap;html=1;" vertex="1" parent="1">
          <mxGeometry x="150" y="130" width="120" height="50" as="geometry" />
        </mxCell>
        <mxCell id="dQbcpjdNm545p0qG1WxG-5" value="front" style="rounded=0;whiteSpace=wrap;html=1;" vertex="1" parent="1">
          <mxGeometry x="290" y="130" width="120" height="50" as="geometry" />
        </mxCell>
        <mxCell id="dQbcpjdNm545p0qG1WxG-7" value="" style="strokeWidth=2;html=1;shape=mxgraph.flowchart.annotation_2;align=left;labelPosition=right;pointerEvents=1;rotation=90;" vertex="1" parent="1">
          <mxGeometry x="130" y="160" width="50" height="100" as="geometry" />
        </mxCell>
        <mxCell id="dQbcpjdNm545p0qG1WxG-8" value="movies" style="rounded=0;whiteSpace=wrap;html=1;" vertex="1" parent="1">
          <mxGeometry x="20" y="230" width="100" height="30" as="geometry" />
        </mxCell>
        <mxCell id="dQbcpjdNm545p0qG1WxG-9" value="accounts" style="rounded=0;whiteSpace=wrap;html=1;" vertex="1" parent="1">
          <mxGeometry x="160" y="230" width="90" height="30" as="geometry" />
        </mxCell>
        <mxCell id="dQbcpjdNm545p0qG1WxG-13" value="components" style="rounded=0;whiteSpace=wrap;html=1;" vertex="1" parent="1">
          <mxGeometry x="320" y="210" width="140" height="30" as="geometry" />
        </mxCell>
        <mxCell id="dQbcpjdNm545p0qG1WxG-14" value="&lt;blockquote style=&quot;margin: 0 0 0 40px; border: none; padding: 0px;&quot;&gt;&lt;/blockquote&gt;&lt;ul&gt;&lt;li&gt;&lt;span style=&quot;background-color: initial;&quot;&gt;회원가입 accounts/signup/&lt;/span&gt;&lt;/li&gt;&lt;li&gt;&lt;span style=&quot;background-color: initial;&quot;&gt;로그인 accounts/login/&lt;/span&gt;&lt;/li&gt;&lt;li&gt;&lt;span style=&quot;background-color: initial;&quot;&gt;accounts/logout/&lt;/span&gt;&lt;/li&gt;&lt;li&gt;&lt;span style=&quot;background-color: initial;&quot;&gt;프로필 accounts/&amp;lt;username&amp;gt;/&lt;/span&gt;&lt;/li&gt;&lt;li&gt;&lt;span style=&quot;background-color: initial;&quot;&gt;accounts/&amp;lt;user_pk&amp;gt;/follow/&lt;/span&gt;&lt;/li&gt;&lt;/ul&gt;&lt;ul&gt;&lt;li&gt;&lt;span style=&quot;background-color: initial;&quot;&gt;게시글 작성 review/create/&lt;/span&gt;&lt;/li&gt;&lt;li&gt;&lt;span style=&quot;background-color: initial;&quot;&gt;(메인) 전체 게시글 review/&lt;/span&gt;&lt;/li&gt;&lt;li&gt;&lt;span style=&quot;background-color: initial;&quot;&gt;(detail) 세부 게시글 review/&amp;lt;review_pk&amp;gt;/&lt;/span&gt;&lt;/li&gt;&lt;li&gt;&lt;span style=&quot;background-color: initial;&quot;&gt;세부 게시글_ 댓글 작성review/&amp;lt;review_pk&amp;gt;/comments/create&lt;/span&gt;&lt;/li&gt;&lt;li&gt;&lt;span style=&quot;background-color: initial;&quot;&gt;세부 게시글_좋아요 review/&amp;lt;review_pk&amp;gt;/like/&lt;/span&gt;&lt;/li&gt;&lt;/ul&gt;&lt;ul&gt;&lt;li&gt;&lt;span style=&quot;background-color: initial;&quot;&gt;(홈) (메인) 전체 영화 리스트 movies/&lt;/span&gt;&lt;/li&gt;&lt;li&gt;&lt;span style=&quot;background-color: initial;&quot;&gt;(detail) 세부 영화 조회 movies/&amp;lt;movie_pk&amp;gt;/&lt;/span&gt;&lt;/li&gt;&lt;li&gt;&lt;span style=&quot;background-color: initial;&quot;&gt;추천 영화 리스트 movies/recommended/&lt;/span&gt;&lt;/li&gt;&lt;li&gt;&lt;span style=&quot;background-color: initial;&quot;&gt;추천 영화 설문지 movies/recommended/search&lt;/span&gt;&lt;/li&gt;&lt;/ul&gt;&lt;blockquote style=&quot;margin: 0 0 0 40px; border: none; padding: 0px;&quot;&gt;&lt;/blockquote&gt;&lt;blockquote style=&quot;margin: 0 0 0 40px; border: none; padding: 0px;&quot;&gt;&lt;/blockquote&gt;&lt;blockquote style=&quot;margin: 0 0 0 40px; border: none; padding: 0px;&quot;&gt;&lt;/blockquote&gt;" style="rounded=0;whiteSpace=wrap;html=1;align=left;" vertex="1" parent="1">
          <mxGeometry x="-380" y="90" width="300" height="290" as="geometry" />
        </mxCell>
        <mxCell id="dQbcpjdNm545p0qG1WxG-17" value="" style="strokeWidth=2;html=1;shape=mxgraph.flowchart.annotation_2;align=left;labelPosition=right;pointerEvents=1;rotation=90;" vertex="1" parent="1">
          <mxGeometry y="230" width="50" height="100" as="geometry" />
        </mxCell>
        <mxCell id="dQbcpjdNm545p0qG1WxG-18" value="urls.py" style="rounded=0;whiteSpace=wrap;html=1;" vertex="1" parent="1">
          <mxGeometry x="-60" y="300" width="70" height="30" as="geometry" />
        </mxCell>
        <mxCell id="dQbcpjdNm545p0qG1WxG-19" value="views.py" style="rounded=0;whiteSpace=wrap;html=1;" vertex="1" parent="1">
          <mxGeometry x="30" y="300" width="70" height="30" as="geometry" />
        </mxCell>
        <mxCell id="dQbcpjdNm545p0qG1WxG-20" value="" style="strokeWidth=2;html=1;shape=mxgraph.flowchart.annotation_2;align=left;labelPosition=right;pointerEvents=1;rotation=90;" vertex="1" parent="1">
          <mxGeometry x="180" y="230" width="50" height="100" as="geometry" />
        </mxCell>
        <mxCell id="dQbcpjdNm545p0qG1WxG-21" value="urls.py" style="rounded=0;whiteSpace=wrap;html=1;" vertex="1" parent="1">
          <mxGeometry x="140" y="300" width="70" height="30" as="geometry" />
        </mxCell>
        <mxCell id="dQbcpjdNm545p0qG1WxG-22" value="views.py" style="rounded=0;whiteSpace=wrap;html=1;" vertex="1" parent="1">
          <mxGeometry x="220" y="300" width="70" height="30" as="geometry" />
        </mxCell>
        <mxCell id="dQbcpjdNm545p0qG1WxG-25" value="Main 화면" style="swimlane;startSize=30;" vertex="1" parent="1">
          <mxGeometry x="-460" y="520" width="560" height="201" as="geometry" />
        </mxCell>
        <mxCell id="dQbcpjdNm545p0qG1WxG-27" value="&lt;h1&gt;&lt;u&gt;Home&lt;/u&gt;&lt;/h1&gt;&lt;p&gt;전체 영화 리스트&amp;nbsp;&lt;/p&gt;" style="text;html=1;spacing=5;spacingTop=-20;whiteSpace=wrap;overflow=hidden;rounded=0;" vertex="1" parent="dQbcpjdNm545p0qG1WxG-25">
          <mxGeometry y="30" width="120" height="70" as="geometry" />
        </mxCell>
        <mxCell id="dQbcpjdNm545p0qG1WxG-31" value="&lt;h1&gt;Recommend&lt;/h1&gt;&lt;p&gt;추천 영화 리스트&amp;nbsp;&lt;/p&gt;" style="text;html=1;spacing=5;spacingTop=-20;whiteSpace=wrap;overflow=hidden;rounded=0;" vertex="1" parent="dQbcpjdNm545p0qG1WxG-25">
          <mxGeometry x="236" y="30" width="170" height="70" as="geometry" />
        </mxCell>
        <mxCell id="dQbcpjdNm545p0qG1WxG-30" value="&lt;h1&gt;Review&lt;/h1&gt;&lt;div&gt;전체 게시글 리스트&lt;/div&gt;" style="text;html=1;spacing=5;spacingTop=-20;whiteSpace=wrap;overflow=hidden;rounded=0;" vertex="1" parent="dQbcpjdNm545p0qG1WxG-25">
          <mxGeometry x="110" y="30" width="130" height="70" as="geometry" />
        </mxCell>
        <mxCell id="dQbcpjdNm545p0qG1WxG-32" value="&lt;h1&gt;Profile&lt;/h1&gt;&lt;p&gt;유저 리스트 or 개인정보&amp;nbsp;&lt;/p&gt;" style="text;html=1;spacing=5;spacingTop=-20;whiteSpace=wrap;overflow=hidden;rounded=0;" vertex="1" parent="dQbcpjdNm545p0qG1WxG-25">
          <mxGeometry x="407" y="30" width="160" height="70" as="geometry" />
        </mxCell>
        <mxCell id="dQbcpjdNm545p0qG1WxG-39" value="전체 영화 리스트&lt;br&gt;- card bootstrap" style="text;html=1;align=center;verticalAlign=middle;whiteSpace=wrap;rounded=0;" vertex="1" parent="dQbcpjdNm545p0qG1WxG-25">
          <mxGeometry x="218" y="156" width="110" height="30" as="geometry" />
        </mxCell>
        <mxCell id="dQbcpjdNm545p0qG1WxG-34" value="Review 화면" style="swimlane;startSize=30;" vertex="1" parent="1">
          <mxGeometry x="160" y="520" width="560" height="220" as="geometry" />
        </mxCell>
        <mxCell id="dQbcpjdNm545p0qG1WxG-35" value="&lt;h1&gt;Home&lt;/h1&gt;" style="text;html=1;spacing=5;spacingTop=-20;whiteSpace=wrap;overflow=hidden;rounded=0;" vertex="1" parent="dQbcpjdNm545p0qG1WxG-34">
          <mxGeometry x="15" y="30" width="120" height="70" as="geometry" />
        </mxCell>
        <mxCell id="dQbcpjdNm545p0qG1WxG-36" value="&lt;h1&gt;Recommend&lt;/h1&gt;&lt;p&gt;&lt;br&gt;&lt;/p&gt;" style="text;html=1;spacing=5;spacingTop=-20;whiteSpace=wrap;overflow=hidden;rounded=0;" vertex="1" parent="dQbcpjdNm545p0qG1WxG-34">
          <mxGeometry x="245" y="30" width="170" height="70" as="geometry" />
        </mxCell>
        <mxCell id="dQbcpjdNm545p0qG1WxG-37" value="&lt;h1&gt;Review&lt;/h1&gt;&lt;div&gt;&lt;br&gt;&lt;/div&gt;" style="text;html=1;spacing=5;spacingTop=-20;whiteSpace=wrap;overflow=hidden;rounded=0;fontStyle=4" vertex="1" parent="dQbcpjdNm545p0qG1WxG-34">
          <mxGeometry x="125" y="30" width="130" height="60" as="geometry" />
        </mxCell>
        <mxCell id="dQbcpjdNm545p0qG1WxG-38" value="&lt;h1&gt;Profile&lt;/h1&gt;&lt;p&gt;&lt;br&gt;&lt;/p&gt;" style="text;html=1;spacing=5;spacingTop=-20;whiteSpace=wrap;overflow=hidden;rounded=0;" vertex="1" parent="dQbcpjdNm545p0qG1WxG-34">
          <mxGeometry x="435" y="30" width="160" height="70" as="geometry" />
        </mxCell>
        <mxCell id="dQbcpjdNm545p0qG1WxG-40" value="전체 게시글 리스트&lt;br&gt;- table bootstrap&lt;br&gt;- 게시글 디테일" style="text;html=1;align=center;verticalAlign=middle;whiteSpace=wrap;rounded=0;" vertex="1" parent="dQbcpjdNm545p0qG1WxG-34">
          <mxGeometry x="185" y="140" width="155" height="50" as="geometry" />
        </mxCell>
        <mxCell id="dQbcpjdNm545p0qG1WxG-57" value="게시글 작성 링크" style="text;html=1;align=center;verticalAlign=middle;whiteSpace=wrap;rounded=0;" vertex="1" parent="dQbcpjdNm545p0qG1WxG-34">
          <mxGeometry x="60" y="110" width="95" height="20" as="geometry" />
        </mxCell>
        <mxCell id="dQbcpjdNm545p0qG1WxG-41" value="Recommend 화면" style="swimlane;startSize=30;" vertex="1" parent="1">
          <mxGeometry x="-460" y="800" width="560" height="210" as="geometry" />
        </mxCell>
        <mxCell id="dQbcpjdNm545p0qG1WxG-42" value="&lt;h1&gt;Home&lt;/h1&gt;&lt;p&gt;&amp;nbsp;&lt;/p&gt;" style="text;html=1;spacing=5;spacingTop=-20;whiteSpace=wrap;overflow=hidden;rounded=0;" vertex="1" parent="dQbcpjdNm545p0qG1WxG-41">
          <mxGeometry x="34" y="30" width="120" height="70" as="geometry" />
        </mxCell>
        <mxCell id="dQbcpjdNm545p0qG1WxG-43" value="&lt;h1&gt;Recommend&lt;/h1&gt;&lt;p&gt;&amp;nbsp;&lt;/p&gt;" style="text;html=1;spacing=5;spacingTop=-20;whiteSpace=wrap;overflow=hidden;rounded=0;fontStyle=4" vertex="1" parent="dQbcpjdNm545p0qG1WxG-41">
          <mxGeometry x="264" y="30" width="170" height="70" as="geometry" />
        </mxCell>
        <mxCell id="dQbcpjdNm545p0qG1WxG-44" value="&lt;h1&gt;Review&lt;/h1&gt;&lt;div&gt;&lt;br&gt;&lt;/div&gt;" style="text;html=1;spacing=5;spacingTop=-20;whiteSpace=wrap;overflow=hidden;rounded=0;" vertex="1" parent="dQbcpjdNm545p0qG1WxG-41">
          <mxGeometry x="144" y="30" width="130" height="60" as="geometry" />
        </mxCell>
        <mxCell id="dQbcpjdNm545p0qG1WxG-45" value="&lt;h1&gt;Profile&amp;nbsp;&lt;/h1&gt;" style="text;html=1;spacing=5;spacingTop=-20;whiteSpace=wrap;overflow=hidden;rounded=0;" vertex="1" parent="dQbcpjdNm545p0qG1WxG-41">
          <mxGeometry x="435.25" y="30" width="108.75" height="70" as="geometry" />
        </mxCell>
        <mxCell id="dQbcpjdNm545p0qG1WxG-46" value="추천영화 리스트&lt;br&gt;-carousel bootstrap or card bootstrap&lt;br&gt;- 추천영화 디테일&lt;br&gt;- 추천 영화에 대한 코멘트 남기기" style="text;html=1;align=center;verticalAlign=middle;whiteSpace=wrap;rounded=0;" vertex="1" parent="dQbcpjdNm545p0qG1WxG-41">
          <mxGeometry x="81" y="140" width="210" height="60" as="geometry" />
        </mxCell>
        <mxCell id="dQbcpjdNm545p0qG1WxG-54" value="영화 추천 받기 링크&lt;br&gt;- 설문지&amp;nbsp;" style="text;html=1;align=center;verticalAlign=middle;whiteSpace=wrap;rounded=0;" vertex="1" parent="dQbcpjdNm545p0qG1WxG-41">
          <mxGeometry x="412.5" y="155" width="117.5" height="30" as="geometry" />
        </mxCell>
        <mxCell id="dQbcpjdNm545p0qG1WxG-47" value="profile" style="swimlane;startSize=30;" vertex="1" parent="1">
          <mxGeometry x="160" y="800" width="560" height="215" as="geometry" />
        </mxCell>
        <mxCell id="dQbcpjdNm545p0qG1WxG-48" value="&lt;h1&gt;Home&lt;/h1&gt;&lt;p&gt;&lt;br&gt;&lt;/p&gt;" style="text;html=1;spacing=5;spacingTop=-20;whiteSpace=wrap;overflow=hidden;rounded=0;" vertex="1" parent="dQbcpjdNm545p0qG1WxG-47">
          <mxGeometry x="26" y="30" width="120" height="70" as="geometry" />
        </mxCell>
        <mxCell id="dQbcpjdNm545p0qG1WxG-49" value="&lt;h1&gt;Recommend&lt;/h1&gt;&lt;p&gt;&lt;br&gt;&lt;/p&gt;" style="text;html=1;spacing=5;spacingTop=-20;whiteSpace=wrap;overflow=hidden;rounded=0;" vertex="1" parent="dQbcpjdNm545p0qG1WxG-47">
          <mxGeometry x="256" y="30" width="170" height="70" as="geometry" />
        </mxCell>
        <mxCell id="dQbcpjdNm545p0qG1WxG-50" value="&lt;h1&gt;Review&lt;/h1&gt;&lt;div&gt;&lt;br&gt;&lt;/div&gt;" style="text;html=1;spacing=5;spacingTop=-20;whiteSpace=wrap;overflow=hidden;rounded=0;" vertex="1" parent="dQbcpjdNm545p0qG1WxG-47">
          <mxGeometry x="136" y="30" width="130" height="70" as="geometry" />
        </mxCell>
        <mxCell id="dQbcpjdNm545p0qG1WxG-51" value="&lt;h1&gt;Profile&amp;nbsp;&lt;/h1&gt;" style="text;html=1;spacing=5;spacingTop=-20;whiteSpace=wrap;overflow=hidden;rounded=0;fontStyle=4" vertex="1" parent="dQbcpjdNm545p0qG1WxG-47">
          <mxGeometry x="446" y="30" width="160" height="70" as="geometry" />
        </mxCell>
        <mxCell id="dQbcpjdNm545p0qG1WxG-52" value="개인정보 수정 링크&amp;nbsp;" style="text;html=1;align=center;verticalAlign=middle;whiteSpace=wrap;rounded=0;" vertex="1" parent="dQbcpjdNm545p0qG1WxG-47">
          <mxGeometry x="425" y="155" width="120" height="20" as="geometry" />
        </mxCell>
        <mxCell id="dQbcpjdNm545p0qG1WxG-55" value="개인정보&lt;br&gt;팔로우 / 팔로워&lt;br&gt;내가 좋아요한 게시글&lt;br&gt;내가 작성한 게시글&lt;br&gt;내가 작성한 댓글" style="text;html=1;align=center;verticalAlign=middle;whiteSpace=wrap;rounded=0;" vertex="1" parent="dQbcpjdNm545p0qG1WxG-47">
          <mxGeometry x="125" y="115" width="130" height="80" as="geometry" />
        </mxCell>
        <mxCell id="dQbcpjdNm545p0qG1WxG-60" value="" style="line;strokeWidth=2;direction=south;html=1;" vertex="1" parent="1">
          <mxGeometry x="380" y="180" width="10" height="30" as="geometry" />
        </mxCell>
      </root>
    </mxGraphModel>
  </diagram>
</mxfile>
